<svg width="9" height="12" viewBox="0 0 9 12" fill="none" xmlns="http://www.w3.org/2000/svg">
<path d="M7.06686 7.30712C7.70585 6.87941 8.02535 6.66556 8.14251 6.39853C8.25415 6.14407 8.25489 5.85463 8.14454 5.59961C8.02873 5.33199 7.71033 5.11652 7.07352 4.68557L2.48547 1.58074C1.70485 1.05247 1.31454 0.78834 0.99034 0.798846C0.682338 0.808826 0.396139 0.960257 0.21462 1.20929C0.0235541 1.47141 0.0223579 1.9427 0.0199655 2.88526L0.00426366 9.0716C0.00187129 10.0142 0.000675101 10.4854 0.190408 10.7485C0.37066 10.9985 0.656087 11.1514 0.964035 11.1629C1.28818 11.1751 1.67983 10.9129 2.46312 10.3886L7.06686 7.30712Z" fill="#213842"/>
</svg>
